<svg width="14" height="14" viewBox="0 0 14 14" fill="none" xmlns="http://www.w3.org/2000/svg">
<g id="add_a_photo">
<mask id="mask0_16_263" style="mask-type:alpha" maskUnits="userSpaceOnUse" x="0" y="0" width="14" height="15">
<rect id="Bounding box" y="0.000366211" width="14" height="14" fill="#D9D9D9"/>
</mask>
<g mask="url(#mask0_16_263)">
<path id="add_a_photo_2" d="M1.75797 12.2494C1.43714 12.2494 1.16249 12.1351 0.934017 11.9067C0.705545 11.6782 0.591309 11.4035 0.591309 11.0827V4.0827C0.591309 3.76187 0.705545 3.48722 0.934017 3.25874C1.16249 3.03027 1.43714 2.91604 1.75797 2.91604H3.59547L4.67464 1.74937H8.17464V2.91604H5.18506L4.12047 4.0827H1.75797V11.0827H11.0913V5.8327H12.258V11.0827C12.258 11.4035 12.1437 11.6782 11.9153 11.9067C11.6868 12.1351 11.4121 12.2494 11.0913 12.2494H1.75797ZM11.0913 4.0827V2.91604H9.92464V1.74937H11.0913V0.582703H12.258V1.74937H13.4246V2.91604H12.258V4.0827H11.0913ZM6.42464 10.2077C7.15381 10.2077 7.7736 9.95249 8.28401 9.44208C8.79443 8.93166 9.04964 8.31187 9.04964 7.5827C9.04964 6.85354 8.79443 6.23374 8.28401 5.72333C7.7736 5.21291 7.15381 4.9577 6.42464 4.9577C5.69547 4.9577 5.07568 5.21291 4.56527 5.72333C4.05485 6.23374 3.79964 6.85354 3.79964 7.5827C3.79964 8.31187 4.05485 8.93166 4.56527 9.44208C5.07568 9.95249 5.69547 10.2077 6.42464 10.2077ZM6.42464 9.04104C6.01631 9.04104 5.67117 8.90006 5.38922 8.61812C5.10728 8.33617 4.96631 7.99104 4.96631 7.5827C4.96631 7.17437 5.10728 6.82923 5.38922 6.54729C5.67117 6.26534 6.01631 6.12437 6.42464 6.12437C6.83297 6.12437 7.17811 6.26534 7.46006 6.54729C7.742 6.82923 7.88297 7.17437 7.88297 7.5827C7.88297 7.99104 7.742 8.33617 7.46006 8.61812C7.17811 8.90006 6.83297 9.04104 6.42464 9.04104Z" fill="black"/>
</g>
</g>
</svg>
