<svg width="51" height="23" viewBox="0 0 51 23" fill="none" xmlns="http://www.w3.org/2000/svg">
<g id="Layer_1" clip-path="url(#clip0_35_515)">
<path id="Vector" fill-rule="evenodd" clip-rule="evenodd" d="M50.1673 12.6015C48.8509 14.2296 47.3511 15.7027 45.7012 16.99C41.0647 20.609 35.24 22.7652 28.9143 22.7652C26.4125 22.7652 23.9894 22.4288 21.6872 21.7968L16.6517 19.8586L12.1433 18.1207L3.36688 14.7416L1.24376 13.9239L1.1127 13.8727C0.811271 13.7293 0.604492 13.4207 0.604492 13.0623C0.604492 12.9452 0.626335 12.8326 0.668565 12.7302C0.718075 12.6454 0.769042 12.5605 0.821464 12.4771C1.86992 10.7656 3.11642 9.1887 4.53038 7.78146C9.05913 3.27155 15.2902 0.484863 22.1707 0.484863C24.8486 0.484863 27.429 0.907621 29.8491 1.69023C24.0797 3.1282 19.0996 6.57609 15.6877 11.2498C20.3359 10.3531 25.1355 9.88354 30.0443 9.88354C34.2774 9.88354 38.4305 10.2332 42.4743 10.9046C45.0867 11.3376 47.6525 11.9052 50.1673 12.6015Z" fill="#CBF41C"/>
</g>
<defs>
<clipPath id="clip0_35_515">
<rect width="49.5629" height="22.2804" fill="white" transform="translate(0.604492 0.484863)"/>
</clipPath>
</defs>
</svg>
