<svg width="23" height="22" viewBox="0 0 23 22" fill="none" xmlns="http://www.w3.org/2000/svg">
<g id="search">
<mask id="mask0_16_465" style="mask-type:alpha" maskUnits="userSpaceOnUse" x="0" y="0" width="23" height="22">
<rect id="Bounding box" x="0.5" width="22" height="22" fill="#D9D9D9"/>
</mask>
<g mask="url(#mask0_16_465)">
<path id="search_2" d="M18.4667 19.25L12.6917 13.475C12.2333 13.8417 11.7063 14.1319 11.1104 14.3458C10.5146 14.5597 9.88056 14.6667 9.20833 14.6667C7.54306 14.6667 6.13368 14.0899 4.98021 12.9365C3.82674 11.783 3.25 10.3736 3.25 8.70833C3.25 7.04306 3.82674 5.63368 4.98021 4.48021C6.13368 3.32674 7.54306 2.75 9.20833 2.75C10.8736 2.75 12.283 3.32674 13.4365 4.48021C14.5899 5.63368 15.1667 7.04306 15.1667 8.70833C15.1667 9.38056 15.0597 10.0146 14.8458 10.6104C14.6319 11.2063 14.3417 11.7333 13.975 12.1917L19.75 17.9667L18.4667 19.25ZM9.20833 12.8333C10.3542 12.8333 11.3281 12.4323 12.1302 11.6302C12.9323 10.8281 13.3333 9.85417 13.3333 8.70833C13.3333 7.5625 12.9323 6.58854 12.1302 5.78646C11.3281 4.98438 10.3542 4.58333 9.20833 4.58333C8.0625 4.58333 7.08854 4.98438 6.28646 5.78646C5.48438 6.58854 5.08333 7.5625 5.08333 8.70833C5.08333 9.85417 5.48438 10.8281 6.28646 11.6302C7.08854 12.4323 8.0625 12.8333 9.20833 12.8333Z" fill="#7A7B7C"/>
</g>
</g>
</svg>
